<svg xmlns="http://www.w3.org/2000/svg" width="1000" height="520" viewBox="0 0 1000 520">
  <rect width="100%" height="100%" fill="white"/>
  <line x1="60" y1="460" x2="940" y2="460" stroke="#222"/>
  <line x1="60" y1="60" x2="60" y2="460" stroke="#222"/>
  <text x="500.0" y="505" text-anchor="middle" font-family="sans-serif" font-size="16">Time (seconds)</text>
  <text x="18" y="260.0" text-anchor="middle" transform="rotate(-90 18 260.0)" font-family="sans-serif" font-size="16">Sequence number</text>
  <polyline points="60.0,449.7 61.2,439.5 61.2,429.2 61.2,419.0 61.2,408.7 61.2,398.5 61.2,388.2 187.1,449.7 187.1,398.5 187.1,377.9 311.8,449.7 311.8,367.7 313.0,357.4 313.0,347.2 313.0,336.9 313.0,326.7 313.0,316.4 313.0,306.2 313.0,295.9 313.0,285.6 313.0,275.4 313.0,265.1 313.0,254.9 437.7,326.7 437.7,285.6 437.7,244.6 437.7,234.4 437.7,224.1 437.7,213.8 437.7,203.6 437.7,193.3 438.9,183.1 438.9,172.8 562.3,244.6 563.6,213.8 563.6,193.3 563.6,162.6 563.6,152.3 563.6,142.1 688.2,213.8 688.2,131.8 688.2,121.5 688.2,111.3 688.2,101.0 688.2,90.8 688.2,80.5 688.2,70.3 812.9,121.5 812.9,111.3 812.9,90.8 814.1,70.3 938.8,121.5" fill="none" stroke="#a55d45" stroke-width="2"/>
  <polyline points="61.2,439.5 61.2,429.2 61.2,419.0 61.2,408.7 61.2,388.2 187.1,460.0 187.1,398.5 187.1,377.9 311.8,449.7 313.0,367.7 313.0,357.4 313.0,347.2 313.0,336.9 313.0,316.4 313.0,306.2 313.0,295.9 313.0,275.4 313.0,265.1 313.0,254.9 437.7,326.7 437.7,285.6 438.9,234.4 438.9,224.1 438.9,203.6 438.9,183.1 438.9,172.8 563.6,244.6 563.6,193.3 563.6,162.6 563.6,152.3 563.6,142.1 688.2,213.8 688.2,131.8 688.2,101.0 688.2,80.5 814.1,111.3 814.1,90.8 814.1,70.3 814.1,60.0 940.0,121.5" fill="none" stroke="#2e5f78" stroke-width="2"/>
  <text x="780" y="60" font-family="sans-serif" font-size="14" fill="#a55d45">DATA</text>
  <text x="850" y="60" font-family="sans-serif" font-size="14" fill="#2e5f78">ACK</text>
</svg>
